#!OML:ASF E:/inclinewalkrobotboard/Project1/Captureday1/Session1/subject1.ASF
:FULLY-SPECIFIED
:DEGREES
238
root 0 0 0 17.525710646380574 -4.151661188610156 -1.4626404367479084
lowerback 21.183075308404682 -3.253145117971222 -1.1161013347774777
upperback -0.8892583547862296 -4.793428511271028 3.9251084360182587
thorax -12.645035449546002 -2.1342760040901045 5.285677011359116
lowerneck -9.590433628220746 9.285120296153366 18.576775068849013
upperneck 21.53355899883448 10.858813150967798 -8.248323199130963
head 9.826222708788432 5.890324845794652 -4.604046403470945
rclavicle 1.7671061212718453E-15 5.835048264873849E-15
rhumerus 28.303494508469534 21.681760060925697 -75.40266431896647
rradius 110.33372542885348
rwrist -41.60141025316487
rhand -24.47149216237711 -23.351893891804007
rfingers 7.125019999999992
rthumb 2.050681592203249 -53.7751022645767
lclavicle -2.918125932374288E-15 6.120252066613431E-15
lhumerus 25.708139343818765 -35.45519556857001 73.51816210281103
lradius 142.0411118740438
lwrist 8.929607675865965
lhand -33.3411229108761 8.296633876975225
lfingers 7.12501999999994
lthumb -6.513490915921455 38.757353889913574
rfemur -45.682900857182204 2.4860083555212054 30.38452174587831
rtibia 43.841620655004334
rfoot -20.64049920347244 -3.9417072964953164
rtoes -44.64545784477455
lfemur -36.94292065895236 -22.46025187538866 -12.563251204500688
ltibia 11.953102529100288
lfoot -46.00095009214244 7.673436133627126
ltoes -34.11110810987685
239
root 0 0 0 17.504534165579784 -4.184129212521428 -1.463946560016267
lowerback 21.20877732298732 -3.2535626504637696 -1.1315093820215587
upperback -0.8830878383106464 -4.797887795749649 3.9087222354598934
thorax -12.651187898141881 -2.1364044823286332 5.27661903561286
lowerneck -9.600494310351595 9.302128688231962 18.588361597773233
upperneck 21.529195125661282 10.881563324869116 -8.248802537260605
head 9.829833882845525 5.901763622015898 -4.603606164428105
rclavicle 1.7809067007976553E-15 6.084366148366599E-15
rhumerus 28.428832804679182 20.91002843389998 -74.92394427264898
rradius 109.0488110506971
rwrist -41.11760949674206
rhand -24.463770124283773 -23.537121865117975
rfingers 7.125019999999993
rthumb 2.060045639828509 -53.960096652617125
lclavicle -2.752076470695673E-15 6.351978010306482E-15
lhumerus 25.761259561852405 -35.19344989383322 73.32293104186114
lradius 141.89253099216646
lwrist 8.826732562052683
lhand -33.30406789752849 8.262874077013247
lfingers 7.125019999999941
lthumb -6.4769578287969125 38.7208099876944
rfemur -45.85361082328408 2.4438874967407997 30.20289358150013
rtibia 43.905050039964124
rfoot -20.49438106629703 -3.9849432066078467
rtoes -44.764178088957024
lfemur -35.53795872164128 -23.078714915210394 -12.687115734436095
ltibia 10.184906452812847
lfoot -46.16481448043546 8.10507681523365
ltoes -33.84951124209546
240
root 0 0 0 17.480858375366964 -4.229192177592253 -1.4661175511268199
lowerback 21.25387049440507 -3.253191472569288 -1.148549268349785
upperback -0.8722158722618634 -4.802333172311358 3.8889307305374494
thorax -12.663179343145938 -2.1387266048982223 5.264102236008856
lowerneck -9.608996898336395 9.326970027622298 18.607747740565873
upperneck 21.508413920808238 10.917119611759459 -8.257928858497282
head 9.830162543059716 5.918868935336685 -4.605693261168122
rclavicle 1.7620406337574112E-15 6.290952740106337E-15
rhumerus 28.588008415581047 20.01925084751582 -74.39422790469807
rradius 107.44469012188821
rwrist -40.5484063291737
rhand -24.45240661528886 -23.747216704357896
rfingers 7.125019999999995
rthumb 2.072974020593989 -54.16957592528019
lclavicle -2.628789741252844E-15 6.528748242492981E-15
lhumerus 25.79500656767872 -34.975127542691745 73.16332289413018
lradius 141.75781716953026
lwrist 8.742060501350407
lhand -33.26791110367828 8.237738162733333
lfingers 7.1250199999999415
lthumb -6.441371260286317 38.69313549836294
rfemur -46.36559769041898 2.5073945920981497 29.953609669523523
rtibia 44.08441064448756
rfoot -20.578860541145666 -4.008107127822553
rtoes -44.73389951227351
lfemur -34.61898644881455 -23.461909926112874 -12.827763855803244
ltibia 9.158221142755629
lfoot -46.22508655649975 8.292336645126998
ltoes -33.655590748817
241
root 0 0 0 17.457741975263183 -4.279694379110547 -1.464733203656392
lowerback 21.30577426560189 -3.2524428956844016 -1.1657715527925445
upperback -0.85906863777784 -4.806352745838547 3.869093547084826
thorax -12.676588559131964 -2.1409174363753976 5.251174589188274
lowerneck -9.619212593069182 9.351051978755967 18.625311721309536
upperneck 21.479997041925888 10.95275474770643 -8.270000469321905
head 9.828189140050245 5.935371933443433 -4.60838347119069
rclavicle 1.6907485319884552E-15 6.440224255482586E-15
rhumerus 28.7823341909625 19.06896551404769 -73.83827809589975
rradius 105.68645431588925
rwrist -39.94881590840723
rhand -24.442052510086143 -23.962700989599533
rfingers 7.125019999999997
rthumb 2.0848309128773597 -54.384503315770715
lclavicle -2.5761983904021923E-15 6.648890743017187E-15
lhumerus 25.818920004732476 -34.82218618320114 73.04902264543703
lradius 141.65871809592792
lwrist 8.67873984049077
lhand -33.242480309141285 8.219772452376091
lfingers 7.1250199999999415
lthumb -6.416261108923512 38.67333173429931
rfemur -47.11190480402802 2.656975844850585 29.676937049512986
rtibia 44.33931629221112
rfoot -20.854141792256005 -4.010995707036061
rtoes -44.583607160814616
lfemur -34.146758072782454 -23.61016701669644 -12.968837932812171
ltibia 8.804601653727104
lfoot -46.18451024231115 8.290980979556933
ltoes -33.5416019450178
242
root 0 0 0 17.43694203486475 -4.329460680905969 -1.4599683069392726
lowerback 21.356423430710425 -3.2517221617861125 -1.1817022890717934
upperback -0.845682044037499 -4.809892641694108 3.851552376961286
thorax -12.689201643548424 -2.1428733944240697 5.2398269998671925
lowerneck -9.62970625417043 9.371217977120132 18.638383303781733
upperneck 21.449369408657176 10.98386217163527 -8.283495917077111
head 9.824703996808784 5.949105565971988 -4.611322070729981
rclavicle 1.5603758972272607E-15 6.51717081511984E-15
rhumerus 28.989759533795205 18.13375922311249 -73.29516459462747
rradius 103.95573384460924
rwrist -39.37800227765032
rhand -24.435080645675548 -24.16288278537591
rfingers 7.1250199999999975
rthumb 2.0932620786056653 -54.584417971959915
lclavicle -2.585364930678176E-15 6.71228010153049E-15
lhumerus 25.839346020972357 -34.73088846568609 72.9765795622066
lradius 141.60112630954026
lwrist 8.638021217762349
lhand -33.22911212847863 8.207889354647982
lfingers 7.125019999999942
lthumb -6.402955613669553 38.660425136918356
rfemur -47.942796345822025 2.8567139958621848 29.412920035463653
rtibia 44.616033846142486
rfoot -21.242241456327278 -4.000295080942498
rtoes -44.3573571712147
lfemur -34.03600505654581 -23.567740006376884 -13.095697784247193
ltibia 8.966837238645965
lfoot -46.067081593748696 8.166058712120131
ltoes -33.51066214106725
